{
  "accessors": [
    {
      "bufferView": 2,
      "componentType": 5126,
      "count": 32882,
      "max": [
        0.6000000238418579,
        0.20949570834636688,
        0.4249400198459625
      ],
      "min": [
        -0.6000000238418579,
        -0.20949570834636688,
        -0.4249400198459625
      ],
      "type": "VEC3"
    },
    {
      "bufferView": 2,
      "byteOffset": 394584,
      "componentType": 5126,
      "count": 32882,
      "max": [
        0.9999917149543762,
        0.9999979734420776,
        0.999992847442627
      ],
      "min": [
        -0.9999679327011108,
        -1.0,
        -0.9999932050704956
      ],
      "type": "VEC3"
    },
    {
      "bufferView": 1,
      "componentType": 5126,
      "count": 32882,
      "max": [
        0.97314453125,
        1.0
      ],
      "min": [
        0.0,
        0.0
      ],
      "type": "VEC2"
    },
    {
      "bufferView": 0,
      "componentType": 5125,
      "count": 177204,
      "type": "SCALAR"
    }
  ],
  "asset": {
    "extras": {
      "author": "avrraj7 (https://sketchfab.com/avrraj7)",
      "license": "SKETCHFAB Standard (https://sketchfab.com/licenses)",
      "source": "https://sketchfab.com/3d-models/lion-f17c88b202a544da85b7b2b0222f4ebc",
      "title": "lion"
    },
    "generator": "Sketchfab-16.14.0",
    "version": "2.0"
  },
  "bufferViews": [
    {
      "buffer": 0,
      "byteLength": 708816,
      "name": "floatBufferViews",
      "target": 34963
    },
    {
      "buffer": 0,
      "byteLength": 263056,
      "byteOffset": 708816,
      "byteStride": 8,
      "name": "floatBufferViews",
      "target": 34962
    },
    {
      "buffer": 0,
      "byteLength": 789168,
      "byteOffset": 971872,
      "byteStride": 12,
      "name": "floatBufferViews",
      "target": 34962
    }
  ],
  "buffers": [
    {
      "byteLength": 1761040,
      "uri": "scene.bin"
    }
  ],
  "images": [
    {
      "uri": "textures/Material_0_baseColor.jpeg"
    }
  ],
  "materials": [
    {
      "doubleSided": true,
      "name": "Material_0",
      "pbrMetallicRoughness": {
        "baseColorTexture": {
          "index": 0
        },
        "metallicFactor": 0.0,
        "roughnessFactor": 0.8868629150101524
      }
    }
  ],
  "meshes": [
    {
      "name": "Mesh_0_Material_0_0",
      "primitives": [
        {
          "attributes": {
            "NORMAL": 1,
            "POSITION": 0,
            "TEXCOORD_0": 2
          },
          "indices": 3,
          "material": 0,
          "mode": 4
        }
      ]
    }
  ],
  "nodes": [
    {
      "children": [
        1
      ],
      "matrix": [
        1.0,
        0.0,
        0.0,
        0.0,
        0.0,
        2.220446049250313e-16,
        -1.0,
        0.0,
        0.0,
        1.0,
        2.220446049250313e-16,
        0.0,
        0.0,
        0.0,
        0.0,
        1.0
      ],
      "name": "Sketchfab_model"
    },
    {
      "children": [
        2
      ],
      "matrix": [
        0.009999999776482582,
        0.0,
        0.0,
        0.0,
        0.0,
        0.0,
        0.009999999776482582,
        0.0,
        0.0,
        -0.009999999776482582,
        0.0,
        0.0,
        0.0,
        0.0,
        0.0,
        1.0
      ],
      "name": "214568e4f8044d6ea97d2f7ba1239cb6.fbx"
    },
    {
      "children": [
        3
      ],
      "name": "RootNode"
    },
    {
      "children": [
        4
      ],
      "matrix": [
        7.549791100775171e-06,
        0.0,
        100.00001525878879,
        0.0,
        100.00001525878851,
        7.549791100775171e-06,
        -7.549791106326287e-06,
        0.0,
        -7.549789954319763e-06,
        99.99999999999973,
        5.551115123125783e-13,
        0.0,
        0.0,
        0.0,
        0.0,
        1.0
      ],
      "name": "Mesh_0"
    },
    {
      "mesh": 0,
      "name": "Mesh_0_Material_0_0"
    }
  ],
  "samplers": [
    {
      "magFilter": 9729,
      "minFilter": 9987,
      "wrapS": 10497,
      "wrapT": 10497
    }
  ],
  "scene": 0,
  "scenes": [
    {
      "name": "Sketchfab_Scene",
      "nodes": [
        0
      ]
    }
  ],
  "textures": [
    {
      "sampler": 0,
      "source": 0
    }
  ]
}
